<svg width="24" height="23" viewBox="0 0 24 23" fill="none" xmlns="http://www.w3.org/2000/svg">
<g clip-path="url(#clip0_1_194)">
<path d="M16.2204 7.25465L9.91872 13.5563L6.48579 10.133L5.13747 11.4813L9.91872 16.2625L17.5687 8.61253L16.2204 7.25465ZM11.8312 1.91878C6.55272 1.91878 2.26872 6.20278 2.26872 11.4813C2.26872 16.7598 6.55272 21.0438 11.8312 21.0438C17.1097 21.0438 21.3937 16.7598 21.3937 11.4813C21.3937 6.20278 17.1097 1.91878 11.8312 1.91878ZM11.8312 19.1313C7.6046 19.1313 4.18122 15.7079 4.18122 11.4813C4.18122 7.25465 7.6046 3.83128 11.8312 3.83128C16.0578 3.83128 19.4812 7.25465 19.4812 11.4813C19.4812 15.7079 16.0578 19.1313 11.8312 19.1313Z" fill="#FF6422"/>
</g>
<defs>
<clipPath id="clip0_1_194">
<rect width="22.95" height="22.95" fill="white" transform="translate(0.356277 0.0062561)"/>
</clipPath>
</defs>
</svg>
