<svg width="20" height="20" viewBox="0 0 20 20" fill="none" xmlns="http://www.w3.org/2000/svg">
<path opacity="0.4" d="M4.04748 17.7216C4.03704 17.7216 4.02742 17.7216 4.01618 17.7208C3.76342 17.7079 3.51548 17.6534 3.27957 17.5579C2.11849 17.0861 1.55841 15.7597 2.02942 14.5994L7.90384 4.30772C8.10605 3.94182 8.41257 3.6353 8.78649 3.42828C9.88178 2.82166 11.2667 3.22046 11.8726 4.31494L17.7085 14.528C17.8384 14.8337 17.8938 15.0824 17.9075 15.336C17.9387 15.9426 17.7317 16.5244 17.3257 16.9745C16.9197 17.4247 16.362 17.6903 15.7562 17.7208L4.10525 17.7216H4.04748Z" fill="white" fill-opacity="0.7"/>
<path fill-rule="evenodd" clip-rule="evenodd" d="M9.18411 8.77755C9.18411 8.39079 9.49946 8.07545 9.88622 8.07545C10.273 8.07545 10.5883 8.39079 10.5883 8.77755V11.0468C10.5883 11.4343 10.273 11.7489 9.88622 11.7489C9.49946 11.7489 9.18411 11.4343 9.18411 11.0468V8.77755ZM9.18415 13.7918C9.18415 13.4027 9.49949 13.0857 9.88625 13.0857C10.273 13.0857 10.5884 13.3987 10.5884 13.783C10.5884 14.1786 10.273 14.4939 9.88625 14.4939C9.49949 14.4939 9.18415 14.1786 9.18415 13.7918Z" fill="white" fill-opacity="0.7"/>
</svg>
