<svg width="20" height="20" viewBox="0 0 20 20" fill="none" xmlns="http://www.w3.org/2000/svg">
<path opacity="0.4" d="M13.2495 2.03568H6.52456C4.08524 2.03568 2.66498 3.46397 2.66498 5.91131V14.2002C2.66498 16.6876 4.08524 18.0838 6.52456 18.0838H13.2495C15.7282 18.0838 17.1083 16.6876 17.1083 14.2002V5.91131C17.1083 3.46397 15.7282 2.03568 13.2495 2.03568Z" fill="white" fill-opacity="0.7"/>
<path fill-rule="evenodd" clip-rule="evenodd" d="M6.74131 5.76691V5.77494C6.39547 5.77494 6.11543 6.05578 6.11543 6.40082C6.11543 6.74585 6.39547 7.02669 6.74131 7.02669H9.1397C9.48554 7.02669 9.76638 6.74585 9.76638 6.39199C9.76638 6.04776 9.48554 5.76691 9.1397 5.76691H6.74131ZM13.0322 10.6535H6.74131C6.39547 10.6535 6.11543 10.3727 6.11543 10.0276C6.11543 9.68261 6.39547 9.40096 6.74131 9.40096H13.0322C13.3772 9.40096 13.6581 9.68261 13.6581 10.0276C13.6581 10.3727 13.3772 10.6535 13.0322 10.6535ZM13.0321 14.3205H6.74119C6.50046 14.3526 6.26776 14.2323 6.13938 14.0316C6.01099 13.823 6.01099 13.5582 6.13938 13.3576C6.26776 13.149 6.50046 13.0367 6.74119 13.0607H13.0321C13.3522 13.0928 13.5937 13.3656 13.5937 13.6946C13.5937 14.0148 13.3522 14.2884 13.0321 14.3205Z" fill="white" fill-opacity="0.7"/>
</svg>
