<svg width="24" height="24" viewBox="0 0 24 24" fill="none" xmlns="http://www.w3.org/2000/svg">
<g clip-path="url(#clip0_1_294)">
<path d="M11.6812 21.5063C12.7331 21.5063 13.5937 20.6456 13.5937 19.5938H9.76874C9.76874 20.6456 10.6294 21.5063 11.6812 21.5063ZM17.4187 15.7688V10.9875C17.4187 8.05181 15.8601 5.59425 13.1156 4.944V4.29375C13.1156 3.50006 12.4749 2.85938 11.6812 2.85938C10.8876 2.85938 10.2469 3.50006 10.2469 4.29375V4.944C7.51199 5.59425 5.94374 8.04225 5.94374 10.9875V15.7688L4.03124 17.6813V18.6375H19.3312V17.6813L17.4187 15.7688ZM15.5062 16.725H7.85624V10.9875C7.85624 8.616 9.30018 6.68438 11.6812 6.68438C14.0623 6.68438 15.5062 8.616 15.5062 10.9875V16.725Z" fill="#181819" fill-opacity="0.9"/>
</g>
<defs>
<clipPath id="clip0_1_294">
<rect width="22.95" height="22.95" fill="white" transform="translate(0.206268 0.46875)"/>
</clipPath>
</defs>
</svg>
