<svg width="65" height="26" viewBox="0 0 65 26" fill="none" xmlns="http://www.w3.org/2000/svg">
<g clip-path="url(#clip0_1_324)">
<path d="M24.6935 5.87466V19.4435H29.649C33.7111 19.4435 36.0996 16.9234 36.0996 12.6262C36.0996 8.32891 33.7018 5.87466 29.649 5.87466H24.6935ZM27.1195 7.92457H29.3951C32.1032 7.92457 33.6265 9.59832 33.6265 12.6356C33.6265 15.7292 32.122 17.3936 29.3951 17.3936H27.1195V7.92457Z" fill="white"/>
<path d="M37.8582 19.4435H40.1996V5.87466H37.8582V19.4435Z" fill="white"/>
<path d="M48.794 16.4626C48.5401 17.2902 47.7126 17.8355 46.6218 17.8355C45.0891 17.8355 44.1111 16.7635 44.1111 15.165V15.0239H51.0789V14.2623C51.0789 11.2345 49.3111 9.26923 46.4808 9.26923C43.6034 9.26923 41.7792 11.3473 41.7792 14.4974C41.7792 17.6756 43.5846 19.6409 46.5748 19.6409C48.935 19.6409 50.6841 18.3433 50.985 16.4626H48.794ZM46.4902 11.084C47.8349 11.084 48.7376 12.0714 48.7846 13.4819H44.13C44.224 12.0902 45.1738 11.084 46.4902 11.084Z" fill="white"/>
<path d="M56.3165 15.8702L58.3852 19.4434H60.9429L57.774 14.4033L60.9805 9.47601H58.4134L56.4293 12.974H56.3823L54.37 9.47601H51.7371L54.9248 14.4691L51.7089 19.4434H54.2008L56.2695 15.8702H56.3165Z" fill="white"/>
<path fill-rule="evenodd" clip-rule="evenodd" d="M9.89285 22.725C15.2078 22.7214 19.5152 18.4119 19.5152 13.0962C19.5152 7.78044 15.2078 3.4708 9.89285 3.46735C13.6587 5.04104 16.305 8.75954 16.305 13.0962C16.305 17.4327 13.6587 21.1512 9.89285 22.725Z" fill="white" fill-opacity="0.16"/>
<path d="M0.257935 6.67726C0.257935 4.90462 1.69494 3.46762 3.46757 3.46762H5.87491C11.1927 3.46762 15.5037 7.77858 15.5037 13.0964C15.5037 18.4143 11.1927 22.7252 5.87491 22.7252H3.46757C1.69494 22.7252 0.257935 21.2882 0.257935 19.5156V6.67726Z" fill="white"/>
</g>
<defs>
<clipPath id="clip0_1_324">
<rect width="64.1926" height="25.677" fill="white" transform="translate(0.257874 0.257751)"/>
</clipPath>
</defs>
</svg>
