<svg width="24" height="24" viewBox="0 0 24 24" fill="none" xmlns="http://www.w3.org/2000/svg">
<g clip-path="url(#clip0_1_128)">
<path d="M12.3062 2.8125C7.0277 2.8125 2.7437 7.0965 2.7437 12.375C2.7437 17.6535 7.0277 21.9375 12.3062 21.9375C17.5847 21.9375 21.8687 17.6535 21.8687 12.375C21.8687 7.0965 17.5847 2.8125 12.3062 2.8125ZM19.4398 9.621L16.7814 10.7207C16.2938 9.42019 15.2706 8.38744 13.9605 7.90931L15.0602 5.25094C17.0683 6.01594 18.6653 7.61287 19.4398 9.621ZM12.3062 15.2438C10.7188 15.2438 9.43745 13.9624 9.43745 12.375C9.43745 10.7876 10.7188 9.50625 12.3062 9.50625C13.8936 9.50625 15.1749 10.7876 15.1749 12.375C15.1749 13.9624 13.8936 15.2438 12.3062 15.2438ZM9.56176 5.24137L10.6806 7.89975C9.36095 8.37788 8.31864 9.42019 7.83095 10.7398L5.17257 9.63056C5.94714 7.61288 7.54407 6.01594 9.56176 5.24137ZM5.17257 15.1194L7.83095 14.0198C8.31864 15.3394 9.35139 16.3721 10.671 16.8503L9.5522 19.5086C7.54407 18.7341 5.94714 17.1371 5.17257 15.1194ZM15.0602 19.5086L13.9605 16.8503C15.2706 16.3626 16.3033 15.3298 16.7814 14.0102L19.4398 15.129C18.6653 17.1371 17.0683 18.7341 15.0602 19.5086Z" fill="#3855B3" fill-opacity="0.9"/>
</g>
<defs>
<clipPath id="clip0_1_128">
<rect width="22.95" height="22.95" fill="white" transform="translate(0.831223 0.899994)"/>
</clipPath>
</defs>
</svg>
