<svg width="20" height="20" viewBox="0 0 20 20" fill="none" xmlns="http://www.w3.org/2000/svg">
<path d="M9.84589 11.6834C7.07759 11.6834 4.74182 12.1358 4.74182 13.8816C4.74182 15.6281 7.09268 16.0646 9.84589 16.0646C12.6142 16.0646 14.95 15.6122 14.95 13.8664C14.95 12.1199 12.5991 11.6834 9.84589 11.6834Z" fill="white" fill-opacity="0.7"/>
<path opacity="0.4" d="M9.84576 10.0201C11.7203 10.0201 13.2233 8.5084 13.2233 6.6231C13.2233 4.73708 11.7203 3.2261 9.84576 3.2261C7.97126 3.2261 6.4682 4.73708 6.4682 6.6231C6.4682 8.5084 7.97126 10.0201 9.84576 10.0201Z" fill="white" fill-opacity="0.7"/>
<path opacity="0.4" d="M17.1792 7.41403C17.6642 5.50633 16.2423 3.79301 14.4317 3.79301C14.2349 3.79301 14.0466 3.81469 13.8627 3.85155C13.8383 3.85733 13.811 3.86961 13.7966 3.89129C13.7801 3.91875 13.7923 3.9556 13.8103 3.97945C14.3542 4.74686 14.6667 5.6812 14.6667 6.68419C14.6667 7.64526 14.38 8.5413 13.8771 9.28487C13.8254 9.36147 13.8713 9.4648 13.9626 9.4807C14.089 9.5031 14.2184 9.51466 14.3506 9.51828C15.669 9.55296 16.8523 8.69956 17.1792 7.41403Z" fill="white" fill-opacity="0.7"/>
<path d="M18.56 11.9057C18.3186 11.3883 17.7359 11.0335 16.85 10.8594C16.4319 10.7567 15.3003 10.6122 14.2477 10.6317C14.2319 10.6339 14.2233 10.6447 14.2218 10.652C14.2197 10.6621 14.224 10.6794 14.2448 10.6903C14.7312 10.9323 16.6115 11.9852 16.3751 14.2058C16.3651 14.3019 16.4419 14.385 16.5375 14.3705C17.0002 14.304 18.1907 14.0468 18.56 13.2454C18.7641 12.822 18.7641 12.3299 18.56 11.9057Z" fill="white" fill-opacity="0.7"/>
<path opacity="0.4" d="M5.91052 3.85179C5.72731 3.81421 5.53835 3.79326 5.34148 3.79326C3.53092 3.79326 2.10905 5.50657 2.59474 7.41427C2.92093 8.6998 4.10426 9.55321 5.42267 9.51852C5.55487 9.51491 5.68492 9.50262 5.81065 9.48094C5.9019 9.46505 5.94788 9.36171 5.89615 9.28512C5.39321 8.54082 5.10654 7.64551 5.10654 6.68443C5.10654 5.68072 5.4198 4.74638 5.96369 3.97969C5.98093 3.95585 5.99386 3.91899 5.97662 3.89153C5.96225 3.86913 5.93566 3.85757 5.91052 3.85179Z" fill="white" fill-opacity="0.7"/>
<path d="M2.92314 10.8591C2.03725 11.0333 1.45529 11.3881 1.21388 11.9055C1.00911 12.3296 1.00911 12.8217 1.21388 13.2459C1.58317 14.0466 2.77369 14.3045 3.23639 14.3703C3.33195 14.3848 3.40811 14.3024 3.39805 14.2056C3.16167 11.9857 5.04193 10.9328 5.52905 10.6908C5.54917 10.6792 5.55348 10.6626 5.55133 10.6517C5.54989 10.6445 5.54199 10.6337 5.52618 10.6322C4.47289 10.612 3.34201 10.7565 2.92314 10.8591Z" fill="white" fill-opacity="0.7"/>
</svg>
