<svg width="20" height="21" viewBox="0 0 20 21" fill="none" xmlns="http://www.w3.org/2000/svg">
<path d="M14.8141 6.25465L8.51246 12.5563L5.07952 9.13297L3.73121 10.4813L8.51246 15.2625L16.1625 7.61253L14.8141 6.25465ZM10.425 0.918777C5.14646 0.918777 0.862457 5.20278 0.862457 10.4813C0.862457 15.7598 5.14646 20.0438 10.425 20.0438C15.7035 20.0438 19.9875 15.7598 19.9875 10.4813C19.9875 5.20278 15.7035 0.918777 10.425 0.918777ZM10.425 18.1313C6.19833 18.1313 2.77496 14.7079 2.77496 10.4813C2.77496 6.25465 6.19833 2.83128 10.425 2.83128C14.6516 2.83128 18.075 6.25465 18.075 10.4813C18.075 14.7079 14.6516 18.1313 10.425 18.1313Z" fill="#4A4DE6"/>
</svg>
